# xmcd
#
# Track frame offsets:
#	182
#	16262
#	32672
#	51195
#	70560
#	92382
#	113992
#	131012
#	145822
#	160797
#
# Disc length: 2413 seconds
#
# Revision: 0
# Processed by: cddbd v1.5.1PL0 Copyright (c) Steve Scherf et al.
# Submitted via: EasyCDDAExtractor 7.5.0.1
#
DISCID=79096b0a
DTITLE=Peret - El joven Peret
DYEAR=1900
DGENRE=Rumba
TTITLE0=Te quiero y no te quiero
TTITLE1=Chocolate Blanco y negro
TTITLE2=Chica vaiven
TTITLE3=es la ultima noche
TTITLE4=a cambio
TTITLE5=mi raza
TTITLE6=a caballo
TTITLE7=yo te quiero
TTITLE8=pideme
TTITLE9=lagrimas
EXTD=
EXTT0=
EXTT1=
EXTT2=
EXTT3=
EXTT4=
EXTT5=
EXTT6=
EXTT7=
EXTT8=
EXTT9=
PLAYORDER=
